<svg width="183" height="35" viewBox="0 0 183 35" fill="none" xmlns="http://www.w3.org/2000/svg">
<path d="M13.7064 7.54V10.144H8.52638V27H5.33438V10.144H0.126378V7.54H13.7064ZM24.3191 11.32C25.4951 11.32 26.5404 11.572 27.4551 12.076C28.3884 12.58 29.1164 13.3267 29.6391 14.316C30.1804 15.3053 30.4511 16.5 30.4511 17.9V27H27.2871V18.376C27.2871 16.9947 26.9417 15.94 26.2511 15.212C25.5604 14.4653 24.6177 14.092 23.4231 14.092C22.2284 14.092 21.2764 14.4653 20.5671 15.212C19.8764 15.94 19.5311 16.9947 19.5311 18.376V27H16.3391V6.28H19.5311V13.364C20.0724 12.7107 20.7537 12.2067 21.5751 11.852C22.4151 11.4973 23.3297 11.32 24.3191 11.32ZM32.8587 19.216C32.8587 17.6667 33.176 16.2947 33.8107 15.1C34.464 13.9053 35.3413 12.9813 36.4427 12.328C37.5627 11.656 38.7947 11.32 40.1387 11.32C41.352 11.32 42.4067 11.5627 43.3027 12.048C44.2173 12.5147 44.9453 13.1027 45.4867 13.812V11.572H48.7067V27H45.4867V24.704C44.9453 25.432 44.208 26.0387 43.2747 26.524C42.3413 27.0093 41.2773 27.252 40.0827 27.252C38.7573 27.252 37.544 26.916 36.4427 26.244C35.3413 25.5533 34.464 24.6013 33.8107 23.388C33.176 22.156 32.8587 20.7653 32.8587 19.216ZM45.4867 19.272C45.4867 18.208 45.2627 17.284 44.8147 16.5C44.3853 15.716 43.816 15.1187 43.1067 14.708C42.3973 14.2973 41.632 14.092 40.8107 14.092C39.9893 14.092 39.224 14.2973 38.5147 14.708C37.8053 15.1 37.2267 15.688 36.7787 16.472C36.3493 17.2373 36.1347 18.152 36.1347 19.216C36.1347 20.28 36.3493 21.2133 36.7787 22.016C37.2267 22.8187 37.8053 23.4347 38.5147 23.864C39.2427 24.2747 40.008 24.48 40.8107 24.48C41.632 24.48 42.3973 24.2747 43.1067 23.864C43.816 23.4533 44.3853 22.856 44.8147 22.072C45.2627 21.2693 45.4867 20.336 45.4867 19.272ZM60.0832 11.32C61.2966 11.32 62.3792 11.572 63.3312 12.076C64.3019 12.58 65.0579 13.3267 65.5992 14.316C66.1406 15.3053 66.4112 16.5 66.4112 17.9V27H63.2472V18.376C63.2472 16.9947 62.9019 15.94 62.2112 15.212C61.5206 14.4653 60.5779 14.092 59.3832 14.092C58.1886 14.092 57.2366 14.4653 56.5272 15.212C55.8366 15.94 55.4912 16.9947 55.4912 18.376V27H52.2992V11.572H55.4912V13.336C56.0139 12.7013 56.6766 12.2067 57.4792 11.852C58.3006 11.4973 59.1686 11.32 60.0832 11.32ZM75.9868 19.3L83.0988 27H78.7868L73.0748 20.364V27H69.8828V6.28H73.0748V18.32L78.6748 11.572H83.0988L75.9868 19.3ZM105.348 11.572L95.8842 34.252H92.5802L95.7162 26.748L89.6402 11.572H93.1962L97.5362 23.332L102.044 11.572H105.348ZM113.849 27.252C112.393 27.252 111.077 26.9253 109.901 26.272C108.725 25.6 107.801 24.6667 107.129 23.472C106.457 22.2587 106.121 20.8587 106.121 19.272C106.121 17.704 106.466 16.3133 107.157 15.1C107.848 13.8867 108.79 12.9533 109.985 12.3C111.18 11.6467 112.514 11.32 113.989 11.32C115.464 11.32 116.798 11.6467 117.993 12.3C119.188 12.9533 120.13 13.8867 120.821 15.1C121.512 16.3133 121.857 17.704 121.857 19.272C121.857 20.84 121.502 22.2307 120.793 23.444C120.084 24.6573 119.113 25.6 117.881 26.272C116.668 26.9253 115.324 27.252 113.849 27.252ZM113.849 24.48C114.67 24.48 115.436 24.284 116.145 23.892C116.873 23.5 117.461 22.912 117.909 22.128C118.357 21.344 118.581 20.392 118.581 19.272C118.581 18.152 118.366 17.2093 117.937 16.444C117.508 15.66 116.938 15.072 116.229 14.68C115.52 14.288 114.754 14.092 113.933 14.092C113.112 14.092 112.346 14.288 111.637 14.68C110.946 15.072 110.396 15.66 109.985 16.444C109.574 17.2093 109.369 18.152 109.369 19.272C109.369 20.9333 109.789 22.2213 110.629 23.136C111.488 24.032 112.561 24.48 113.849 24.48ZM138.385 11.572V27H135.193V25.18C134.689 25.8147 134.026 26.3187 133.205 26.692C132.402 27.0467 131.543 27.224 130.629 27.224C129.415 27.224 128.323 26.972 127.353 26.468C126.401 25.964 125.645 25.2173 125.085 24.228C124.543 23.2387 124.273 22.044 124.273 20.644V11.572H127.437V20.168C127.437 21.5493 127.782 22.6133 128.473 23.36C129.163 24.088 130.106 24.452 131.301 24.452C132.495 24.452 133.438 24.088 134.129 23.36C134.838 22.6133 135.193 21.5493 135.193 20.168V11.572H138.385ZM146 7.54L145.636 21.12H142.976L142.612 7.54H146ZM144.404 27.196C143.825 27.196 143.34 27 142.948 26.608C142.556 26.216 142.36 25.7307 142.36 25.152C142.36 24.5733 142.556 24.088 142.948 23.696C143.34 23.304 143.825 23.108 144.404 23.108C144.964 23.108 145.44 23.304 145.832 23.696C146.224 24.088 146.42 24.5733 146.42 25.152C146.42 25.7307 146.224 26.216 145.832 26.608C145.44 27 144.964 27.196 144.404 27.196ZM154.966 28.96H182.966V0.96H154.966V28.96Z" fill="#6C7275"/>
</svg>
