<svg width="41" height="43" viewBox="0 0 41 43" fill="none" xmlns="http://www.w3.org/2000/svg">
<rect y="0.5" width="41" height="42" rx="20.5" fill="#B1B5C4"/>
<path d="M20.4993 27.6591C19.6811 27.6591 18.9538 27.5189 18.3175 27.2386C17.6849 26.9583 17.1849 26.5682 16.8175 26.0682C16.45 25.5682 16.255 24.9905 16.2322 24.3352H18.3686C18.3875 24.6496 18.4917 24.9242 18.6811 25.1591C18.8705 25.3902 19.1224 25.5701 19.4368 25.6989C19.7512 25.8277 20.1035 25.892 20.4936 25.892C20.9103 25.892 21.2796 25.8201 21.6016 25.6761C21.9235 25.5284 22.1754 25.3239 22.3572 25.0625C22.5391 24.8011 22.6281 24.5 22.6243 24.1591C22.6281 23.8068 22.5372 23.4962 22.3516 23.2273C22.166 22.9583 21.897 22.7481 21.5447 22.5966C21.1963 22.4451 20.7758 22.3693 20.2834 22.3693H19.255V20.7443H20.2834C20.6887 20.7443 21.0429 20.6742 21.3459 20.5341C21.6527 20.3939 21.8932 20.197 22.0675 19.9432C22.2417 19.6856 22.3269 19.3883 22.3232 19.0511C22.3269 18.7216 22.2531 18.4356 22.1016 18.1932C21.9538 17.947 21.7436 17.7557 21.4709 17.6193C21.2019 17.483 20.8857 17.4148 20.522 17.4148C20.166 17.4148 19.8364 17.4792 19.5334 17.608C19.2304 17.7367 18.986 17.9205 18.8004 18.1591C18.6148 18.3939 18.5163 18.6742 18.505 19H16.4766C16.4917 18.3485 16.6792 17.7765 17.0391 17.2841C17.4027 16.7879 17.8875 16.4015 18.4936 16.125C19.0997 15.8447 19.7796 15.7045 20.5334 15.7045C21.3099 15.7045 21.9841 15.8504 22.5561 16.142C23.1319 16.4299 23.5769 16.8182 23.8913 17.3068C24.2057 17.7955 24.3629 18.3352 24.3629 18.9261C24.3667 19.5814 24.1735 20.1307 23.7834 20.5739C23.397 21.017 22.8894 21.3068 22.2607 21.4432V21.5341C23.0788 21.6477 23.7057 21.9508 24.1413 22.4432C24.5807 22.9318 24.7985 23.5398 24.7947 24.267C24.7947 24.9186 24.6091 25.5019 24.2379 26.017C23.8705 26.5284 23.3629 26.9299 22.7152 27.2216C22.0713 27.5133 21.3326 27.6591 20.4993 27.6591Z" fill="#FCFCFD"/>
</svg>
