<svg width="40" height="41" viewBox="0 0 40 41" fill="none" xmlns="http://www.w3.org/2000/svg">
<rect y="0.5" width="40" height="40" rx="20" fill="#B1B5C4"/>
<path d="M16.0653 26.5V24.9773L20.1051 21.017C20.4915 20.6269 20.8134 20.2803 21.071 19.9773C21.3286 19.6742 21.5218 19.3807 21.6506 19.0966C21.7794 18.8125 21.8438 18.5095 21.8438 18.1875C21.8438 17.8201 21.7604 17.5057 21.5938 17.2443C21.4271 16.9792 21.1979 16.7746 20.9062 16.6307C20.6146 16.4867 20.2831 16.4148 19.9119 16.4148C19.5294 16.4148 19.1941 16.4943 18.9062 16.6534C18.6184 16.8087 18.3949 17.0303 18.2358 17.3182C18.0805 17.6061 18.0028 17.9489 18.0028 18.3466H15.9972C15.9972 17.608 16.1657 16.9659 16.5028 16.4205C16.84 15.875 17.304 15.4527 17.8949 15.1534C18.4896 14.8542 19.1714 14.7045 19.9403 14.7045C20.7206 14.7045 21.4063 14.8504 21.9972 15.142C22.5881 15.4337 23.0464 15.8333 23.3722 16.3409C23.7017 16.8485 23.8665 17.428 23.8665 18.0795C23.8665 18.5152 23.7831 18.9432 23.6165 19.3636C23.4498 19.7841 23.1563 20.25 22.7358 20.7614C22.3191 21.2727 21.7339 21.892 20.9801 22.6193L18.9744 24.6591V24.7386H24.0426V26.5H16.0653Z" fill="#FCFCFD"/>
</svg>
